<?xml version="1.0" encoding="UTF-8"?>
<!DOCTYPE svg PUBLIC "-//W3C//DTD SVG 1.1//EN" "http://www.w3.org/Graphics/SVG/1.1/DTD/svg11.dtd">
<!-- Creator: CorelDRAW 2020 (64-Bit) -->
<svg xmlns="http://www.w3.org/2000/svg" xml:space="preserve" width="402.897mm" height="100.724mm" version="1.1" style="shape-rendering:geometricPrecision; text-rendering:geometricPrecision; image-rendering:optimizeQuality; fill-rule:evenodd; clip-rule:evenodd"
viewBox="0 0 40907.92 10226.97"
 xmlns:xlink="http://www.w3.org/1999/xlink"
 xmlns:xodm="http://www.corel.com/coreldraw/odm/2003">
 <defs>
  <style type="text/css">
   <![CDATA[
    .fil2 {fill:#FEFEFE}
    .fil0 {fill:#0077B5}
    .fil3 {fill:#007EB6}
    .fil4 {fill:#017FB7}
    .fil1 {fill:#1CBEDB}
   ]]>
  </style>
 </defs>
 <g id="Capa_x0020_1">
  <metadata id="CorelCorpID_0Corel-Layer"/>
  <path class="fil0" d="M3503.36 8112.71c-20.96,-126.88 -14.84,-1898.02 5.4,-1950.11 153.54,-24.12 489.03,-5.06 661.92,-5.06l2029.42 16.3c388.25,-0.16 934.85,-52.2 1242.44,109.96 668.94,352.69 709.99,1317.56 15.79,1702.22 -327.13,181.26 -837.03,121.75 -1242.25,121.17 -277.14,-0.4 -2513.63,29.66 -2712.73,5.52zm-2.04 -5968.04c194.05,-20.12 466.86,-4.79 669.37,-4.79 392.58,0 1778.13,-27.43 1978.17,19.4 342.34,80.13 604.01,326.63 707.1,636.81 89.98,270.71 55.08,571.53 -96.5,815.41 -291.14,468.41 -679.32,457.88 -1198.53,457.57 -442.1,-0.27 -884.2,-0.12 -1326.32,-0.12 -207.22,0 -473.43,15.22 -672.53,2.61 -86.02,-5.43 -66.26,-18.72 -64.92,-107.04 5.03,-333.7 -12.95,-1705.56 4.17,-1819.85zm-1302.11 8082.29l5156.96 0c2.54,-3.57 7.68,-12.27 9.58,-9.04l21.37 -15.36c3.61,-1.62 8.16,-3.84 12.36,-5.35 96.42,-34.87 404.58,-33.67 885.24,-266.49 136.26,-65.99 264.1,-137.64 388.42,-218.76 135.51,-88.41 237.69,-173.5 347.41,-275.49 460.08,-427.74 760.14,-869.57 934.59,-1526.83 244.6,-921.55 17.18,-1911.05 -536.4,-2627.09 -110.73,-143.22 -309.19,-359.33 -453.24,-474.09l-354.56 -270.26c9,-63.58 112.83,-250.41 146.58,-335.13 43.4,-108.96 87.86,-240.67 117.5,-361.17 265.66,-1080.1 -34.98,-2128.56 -762.51,-2893.81 -854.53,-898.84 -1870.41,-897.63 -1940.13,-948.12l-4684.98 0 -6.54 3395.3c115.67,-43.1 608.25,-653.83 718.48,-702.94l-0.12 7534.62z"/>
  <path class="fil1" d="M950.14 10226.97l1173.61 0 3.12 -7355.59c-86.4,26.39 -326.1,319.83 -408.23,413.34 -42.2,48.06 -87.34,77.15 -129.57,125.64 -44.71,51.34 -77.07,101.33 -125.37,146.9 -61.05,57.58 -84.55,78.99 -135.18,136.1 -75.59,85.22 -359.92,368.74 -373.51,422.42l-4.86 6111.19z"/>
  <path class="fil0" d="M-0 3207.1l0 7019.87 863.37 0c0,-1983.49 11.77,-3994.19 -0.12,-5976.44 -0.75,-123.54 -19.63,-155.46 46.57,-225.04 294.72,-309.77 262.49,-179.81 266.38,-541.93 1.95,-180.78 0.37,-362.43 0.22,-543.31 -0.27,-344.06 -17.61,-740.07 4.52,-1077.82 -66.04,22.66 -99.95,92.55 -159.82,165.7l-581.35 680.21c-46.52,53.8 -99.06,127.32 -143.77,176.56 -52.93,58.29 -243.69,303.61 -296,322.2z"/>
  <path class="fil2" d="M20745.38 5397.33l535.37 0.34c47.85,-148.91 192,-1096.83 237.47,-1376.12 13.08,-80.36 26.09,-154.88 39.25,-233.65 7.89,-47.18 23.6,-186.31 47.02,-222.19 42.73,71.16 491.49,1434.7 570.24,1664.7 67.47,197.01 -35.27,164.78 404.52,166.69l141.08 1.03c176.54,-470.31 362.48,-1094.78 534.69,-1606.16l96.03 -231.59c4.81,147.08 280.86,1766.41 312.73,1828.85l512.81 8.09c8.64,-59.66 -448.87,-2849.59 -487.81,-2943.07l-390.45 -2.16c-184.35,0.19 -124.56,-37.73 -276.21,419.58 -60.58,182.66 -118.11,357.08 -179.18,540.07 -121.03,362.6 -244.59,715.9 -357.04,1077.77 -61.29,-69.76 -372.3,-1071.43 -430.91,-1248.8 -69.97,-211.69 -142.44,-420.7 -212.4,-634.31 -70.06,-213.85 7.6,-148.18 -462.6,-154.91 -95.2,-1.37 -128.6,-21.96 -148.29,67.87 -98.77,450.4 -164.47,968.55 -245.06,1433.61 -36.36,209.87 -244.11,1331.39 -241.26,1444.37z"/>
  <path class="fil2" d="M26515.57 5394.41l523.86 2.01 14.39 -106.26c3.8,-469.56 13.97,-1432.44 -5.32,-1797.65 58.99,28.86 18.29,-6.07 93.59,110.68l870.33 1318.49c102.68,152.17 214.33,340.91 317.91,476.5l529.2 0.29c-1.38,-344.54 29.01,-2832.87 -11.57,-2942.29l-538.35 -3.95c-31.51,89.44 -17.37,1702.77 -12.01,1925.89 -72.29,-63.82 -299.01,-443.34 -369.68,-555.07l-728.1 -1125.3c-192.73,-275.88 -61.95,-266.94 -682.27,-244.38 -23.42,65.11 -28.35,2857.06 -1.98,2941.03z"/>
  <path class="fil2" d="M11585.46 4110.25c390.26,-2.63 852.61,-25.17 875.45,381.55 24.13,429.5 -520.9,376.63 -881.52,368.39l6.07 -749.93zm-4.47 -1123.17c304.18,-5.86 688.12,-33.32 672.21,320 -15.06,334.68 -362.03,310.29 -673.57,309.99l1.36 -629.98zm-560.04 2410.64c362.48,4.02 1150.1,36.65 1464.03,-71.66 327.94,-113.14 605.56,-541.94 500.8,-990.12 -61.84,-264.56 -252.13,-448.12 -472.15,-544.26 31.78,-68.1 284.85,-239.13 289.77,-563.43 4.39,-289.05 -140.97,-461.33 -282.47,-568.8 -176.65,-134.17 -373.67,-177.6 -647.41,-195.22 -254.2,-16.35 -600.03,-25.58 -852.21,-9.23l-0.36 2942.72z"/>
  <path class="fil2" d="M37656.15 3841.76c-31.84,-80.37 -18.17,-709.65 -11.54,-837.65 171.05,0.02 489.79,-27.12 626.34,32.62 127.64,55.85 252.86,193.61 244.52,399.28 -19.05,470.13 -528.26,425.26 -859.31,405.74zm-577.11 -1221.11l0.36 2770.17c84.26,16.4 268.32,5.72 360.98,5.92 241.36,0.51 202,58.38 201.99,-219.35l0.47 -785.96 328.22 -0.74c76.52,168.12 182.39,334.29 264.89,502.8 51.03,104.24 231.72,451.76 278.61,503.08l580.81 0.13c-36.32,-144.98 -531.45,-966.11 -554.48,-1082.22 134.47,-123.35 291.78,-136.43 451.06,-413.58 106.04,-184.49 145.56,-484.41 88.26,-730.22 -114.97,-493.25 -526.06,-718.6 -1000.67,-718.59l-846.92 -0.15c-189.97,0.19 -153.58,-19.29 -153.57,168.7z"/>
  <path class="fil2" d="M32381.55 3001.2c577.48,-117.59 1010.26,269.2 1103.85,730.46 117.59,579.45 -261.85,1028.29 -689.59,1132.31 -562.95,136.9 -1023.45,-271.73 -1110.16,-707.43 -118.46,-595.23 229,-1060.24 695.9,-1155.34zm3.31 -534.18c-733.16,104.23 -1354.31,763.43 -1249.06,1646.35 90.22,756.89 767.16,1379.4 1653.38,1269.65 752.16,-93.14 1355.1,-772.5 1240.89,-1652.42 -94.72,-729.79 -783.68,-1386.05 -1645.22,-1263.58z"/>
  <path class="fil2" d="M24420.01 5397.94l1755.13 -0.92c7.15,-101.64 21.1,-465.95 -9.35,-545.83l-1205.6 -1.64 -0.07 -662.68 1215.82 0.07 3.34 -532.57 -1212.54 1.97 -7.16 -652.86 1213.46 -3.39c9.95,-87.66 6.23,-178.09 6.2,-267.57 -0.03,-101.33 14.81,-226.59 -22.18,-276.12l-1731.08 -4.18c-18.81,52.31 -32.31,2778.87 -5.97,2945.73z"/>
  <path class="fil2" d="M12936.6 5392.29l545.72 1.42c26.28,-27.49 5.7,-4.87 25.68,-34.36l232.8 -567.24 1200.21 -0.97c63.69,84.61 94.26,236.18 135.07,346.98 115.99,314.95 -16.39,256.85 504.09,256.66l166.46 -0.11c4.35,-58.58 -569.82,-1502.66 -669.1,-1759.9l-232.42 -586.49c-61.89,61.94 -194.8,472.9 -243.77,590.87 -110.25,265.58 125.24,374.72 128.61,607.1l-770.34 -1.67c14.18,-87.73 558.91,-1455.41 646.37,-1672.09 62.44,-154.71 -10.75,-120.11 -224.27,-120.3l-310.5 0.63c-52.35,61.66 -1138.95,2888.32 -1134.59,2939.48z"/>
  <path class="fil2" d="M17676.08 5396.54l552.22 -1.13c68.7,-95.67 195.87,-507.07 260.16,-600.21l1202.01 -3.82 188.6 529.88c39.66,115.99 122.04,73.78 431.08,73.51l180.55 -1.52 -871.78 -2272.09c-2.63,-6.22 -12.5,-28.45 -15.22,-33.35l-28.61 -41.79c-2.16,3.9 -4.77,5.57 -5.67,12.09l-110 277.62c-38.46,99.73 -75.33,194.96 -115.89,299.78 -65.69,169.83 -37.63,154.84 23.83,311.36 28.25,71.92 101.68,229.9 106.61,298.48l-772.44 -0.02c5.94,-80.21 424.22,-1112.32 511.32,-1331.67 36.92,-92.98 174.39,-387.29 143.14,-457.41l-436.07 -4.06c-157.83,0.25 -100.65,-47.81 -227.56,276.29 -167.26,427.17 -1014.74,2587.07 -1016.27,2668.07z"/>
  <path class="fil2" d="M16283.27 4516.33c-80.26,38.82 -142.43,84.76 -224.23,132.46 -65.6,38.25 -160.23,88.67 -218.18,131.07 37.47,154.79 264.82,387.02 375.23,464.64 549.82,386.53 1565.52,21.33 1353.63,-841.83 -74.56,-303.7 -337.06,-517.51 -571.81,-707.15l-446.15 -401.13c-83.05,-98.75 -51.3,-240.59 48.2,-293.39 249.58,-132.5 463.02,162.81 549.83,252.11l393.06 -344.81c-37.91,-90.56 -311.61,-311.74 -452.13,-375.38 -221.66,-100.39 -483.75,-105.52 -707.46,-3.92 -391.91,178.01 -563.85,689.54 -243.7,1082.16 273.18,335 734.46,657.58 862.02,815.66 236.85,293.52 -178.52,656.8 -525.28,333.9 -91.67,-85.36 -119.64,-170.46 -193.02,-244.37z"/>
  <path class="fil2" d="M35522.77 4517.53l-444.81 260.34c38.28,158.28 265.31,391.87 376.96,467.33 575.79,389.07 1557.41,6.38 1352.63,-841.08 -75.81,-313.79 -331.06,-503.77 -564.02,-699.19l-446.65 -399.79c-94.62,-102.12 -75.95,-231.87 33.24,-297.98 238.7,-144.56 471.54,148.77 555.56,243.39 48.21,-24.8 370.71,-298.59 396.48,-356.84 -153.79,-131.32 -221.49,-250.04 -464.09,-365.03 -680.77,-322.7 -1473.05,407.14 -940.32,1083.26 239.04,303.37 747.46,669.85 863.3,814.68 163.81,204.83 18.62,449.32 -239.52,458.61 -270.61,9.74 -358.3,-222.53 -478.75,-367.71z"/>
  <path class="fil2" d="M29114.94 3004.16l781.69 0.38c18.82,112.07 7.51,1951.33 5.18,2220.93 -1.88,216.07 -31.25,172.38 187.83,171.25 119.26,-0.62 263.1,7.85 378.86,-2.48 53.3,-177.86 -25.68,-2096.79 14.3,-2380.57 151.06,-41.66 601.9,8.46 800.9,-14.16l0.15 -411.52c0.86,-66.85 9.4,-101.37 -15.8,-124.02 -34.63,-19.42 -1969.36,-29.42 -2142.14,-8.1 -33.76,83.76 -15.5,436.75 -10.98,548.31z"/>
  <path class="fil2" d="M40907.92 5396.78l0 -535.15 -1086.33 -0.59c-1.95,-310.72 29.51,-2286.56 -11.62,-2404.84l-512.31 -4.04c-39.58,124.79 -22.48,188.02 -22.42,360.25 0.04,122.51 0.01,245.01 -0.17,367.52 -0.49,313.18 -12.07,2062.63 4.75,2219.16l1628.1 -2.33z"/>
  <path class="fil3" d="M12483.28 6439.79l-1.64 1199.88c0.45,45.36 -0.84,71.15 19.98,90.37 9.75,8.99 251.95,64.37 273.83,-32.18l5.29 -1127.93c67.12,94.88 258.73,1080.96 307.72,1164.21l293.01 10.7c40.57,-58.01 134.66,-481.22 158.51,-581.46 31.11,-130.8 107.17,-494.41 154.6,-595.6l11.84 34.71c3.15,17.42 3.76,25.84 4.61,43.72 4.29,90.73 -32.07,1050.8 17.63,1089.68 51.83,21.27 194.03,15.67 251.96,2.15 2.36,-3.78 4.75,-14.34 5.4,-12.18 0.65,2.18 4.08,-9.25 4.88,-12.54 0.81,-3.39 3.06,-8.98 3.9,-13.26l-1.12 -1524.27 -462.14 -4.45c-68.3,124.37 -244.04,982.38 -284.39,1043.29 -34.46,-44.71 -127.32,-430.24 -148.15,-514.56 -30.09,-121.78 -101.69,-439.35 -142.79,-527.45 -105.4,-10.52 -253.58,-2.19 -365.72,-4.12 -139,-2.41 -107.12,-21.96 -107.2,271.28z"/>
  <path class="fil3" d="M16109.41 6837.11l-2.58 -395.61c116.05,-12.72 299.45,-4.52 416.9,-0.44 309.9,10.77 308.4,362.89 6.37,392.26 -115.45,11.22 -302.21,10.83 -420.69,3.79zm-2.64 256.51c422.71,-30.08 377.09,224.16 688.22,608.21 62,76.54 266.12,40.1 386.44,46.35 -1.47,-64.14 -66.42,-142.14 -97.72,-191.17 -80.51,-126.13 -145.94,-249.35 -249.03,-357.92 -44.63,-47.02 -126.12,-100.33 -149.58,-152.07 110.07,-44.42 269.08,-45.99 358.47,-263.1 75.83,-184.17 3.21,-393.43 -99.53,-493.64 -116.94,-114.06 -318.75,-118.07 -516.94,-120.44 -155.26,-1.85 -497.74,-17.03 -633.41,4.02 -20.49,123.99 -2.3,1171.96 -6.46,1433.05 -0.93,58.75 -14.34,111.57 25.22,132.61 42.54,22.64 262.87,20.22 285.88,-14.36 22.51,-33.82 7.08,-545.59 8.45,-631.56z"/>
  <path class="fil3" d="M30447.95 6832.51c-17.92,-73.8 -18.63,-312.39 0.66,-385.88 85.71,-20.75 326.54,-10.55 424.72,-5.19 286.12,15.61 300.24,367.99 -16.69,392.83 -96.95,7.59 -318.38,14.05 -408.69,-1.76zm-315.37 -660.79c-31.91,88.34 -10.13,1235.65 -10.17,1306.75l-1.68 192.35c1.82,18.47 1.49,47.87 20.12,62.85 1.4,1.12 273.11,64.73 297.06,-35.11l3.13 -600.93c384.05,-69.75 430.58,282.95 689.62,602.48 56.36,69.51 275.25,57.75 389.88,42.64 -2.92,-52.19 -181.69,-310.71 -221.04,-370.9 -43.52,-66.56 -81.4,-127.94 -123.7,-180.55 -43.81,-54.47 -127.24,-83.02 -155.02,-144.27 89.04,-42.17 227.62,-34.39 318.37,-189.22 76.35,-130.28 96.71,-259.74 39.8,-412.39 -129.67,-347.79 -596.63,-275.93 -1017.61,-274.77l-228.77 1.08z"/>
  <path class="fil3" d="M38225.12 6837.15l-2.48 -394.2c94.31,-16.07 316.62,-5.81 416.98,-2.12 130.42,4.8 222.2,55.74 223.56,190.92 2.7,269.09 -410.73,219.78 -638.06,205.4zm-19.78 896.94l16.96 -303.56c0.05,-112.56 -1.67,-226.1 -0.37,-338.47 295.52,-6.32 304.49,27.4 516.01,350.96 55.13,84.34 116.9,192.58 171.74,260.2 55.93,68.96 299.24,47.44 394.73,38.49 -8.18,-52.19 -179.67,-303.1 -223.33,-369.61 -164.36,-250.34 -254.87,-263.82 -285.7,-329.65 522.28,-105.77 434.01,-581.61 262.84,-750.41 -114.21,-112.63 -318.41,-123.03 -515.26,-121.93 -174.32,0.98 -476.48,-17.37 -633.96,3.19 -30.56,209.66 0.76,1076.34 -5.88,1417.29 -2.4,123.8 -33.15,153.52 78.62,155.14 66.48,0.97 175.25,10.95 223.6,-11.66z"/>
  <path class="fil3" d="M26005.66 7740.54c52.24,-168.61 -21.69,-777.61 14.94,-1007.6l478.19 756.94c24.2,42.19 50.87,85.85 78.93,128.84 16.27,24.91 23.87,37.56 37,58.13 54.89,86.02 10.02,60.93 348.9,67.08 19,-66.51 21.59,-1471.82 3.13,-1568.87l-277.4 -5.88 -7.49 1033.61c-48.76,-26.3 -572.13,-914.79 -650.4,-1032l-298.09 -0.95c-28.98,165.13 -5.56,1090.63 -7.65,1388.59 -1.07,153.61 -20.78,175.32 50.37,187.51 26.87,4.6 197,-1.62 229.57,-5.4z"/>
  <path class="fil3" d="M24584.26 6438.32c275.35,-80.85 504.43,61.08 553.66,381.01 45.85,298.01 -47.25,588.89 -288.54,661.16 -646.43,193.62 -780.27,-890.89 -265.12,-1042.17zm16.74 -287.6c-452.71,65.36 -701.14,407.61 -648.99,928.52 48.06,479.97 390.28,739.82 895.78,686.04 910.8,-96.89 843.6,-1771.99 -246.79,-1614.56z"/>
  <path class="fil3" d="M36760.09 6438.45c323.91,-98.18 516.08,105.49 555.53,384.71 120.22,851.02 -788.59,870.06 -853.35,260.63 -34.8,-327.47 35.59,-565.86 297.82,-645.34zm16.78 -288.28c-247.9,37.7 -400.05,132.61 -505.94,286.78 -116.33,169.38 -166.86,394.94 -142.1,642.25 11.53,115.39 36.45,207.3 82.3,301.31 147.65,302.64 443.8,421.95 813.8,383.93 917.73,-94.32 834.59,-1778.88 -248.07,-1614.28z"/>
  <path class="fil3" d="M12200.31 7741.57c28.5,-72.24 21.76,-183.01 4.36,-259.27l-858.93 -3.08c-10.07,-99.32 -22.31,-339.32 8.73,-423.36 168.42,-23.36 655.53,30.27 767.38,-14.34 25.94,-236.4 12.08,-252.73 -88.13,-256.5 -23.77,-0.89 -69.65,2.56 -96.87,2.83l-586.41 -2.19 -8.64 -344.2 832.63 -2.91c18.49,-80.16 21.6,-187.75 -1.51,-265.99l-1142.98 -2.96c-21.94,140.08 -6.59,1140.43 -7.58,1372.8 -1.04,243.86 -101.27,203.07 483.01,202.77 217.63,-0.1 483.31,12.62 694.96,-3.6z"/>
  <path class="fil4" d="M17373.44 6375.87l0.89 1230.44c0.15,172.39 -57.46,138.42 315.15,139.12l671.14 0.13c203.37,-0.71 229.98,76.17 203.74,-261.71 -145.8,-3.06 -797.87,7.23 -865.33,-15.14l-5.69 -356.56c7.16,-39.29 -0.32,-23.7 19.69,-45.11 66.33,-45.48 631,-7.8 762.8,-14.2l1.69 -263.14c-71.96,-16.06 -278.47,-1.83 -372.57,-1.86l-304.86 1.94c-52.79,-0.43 -75.03,3.08 -93.66,-16.95 -40.11,-43.13 -12.69,-357.23 8.21,-322.58 2.26,3.74 9.02,-4.65 12.23,-5.53l802.69 -6.83c14.49,-81.07 16.96,-199.13 -1.21,-262.13l-1080.6 -7.44c-93.28,4.57 -75.12,17.29 -74.33,207.55z"/>
  <path class="fil3" d="M27535.25 7206.92c-268.98,16.93 -371.78,-30.24 -244,257.62 187.89,423.22 871.47,347.75 1074.89,159.73 92.31,-85.34 172.64,-267.73 130.9,-455.4 -76.87,-345.69 -431.4,-337.25 -753.87,-459.62 -398.19,-151.09 51.12,-408.5 282.36,-267.13 87.46,53.47 82.87,104.58 125.54,191.93 62.43,2.24 271.94,18.18 299.97,-27.27 21.4,-34.72 -9.05,-416.74 -496.49,-459.82 -485,-42.86 -765.36,260.04 -638.3,588.76 142.51,368.69 698.02,292.86 837.74,457.59 74.43,87.78 42.54,311.94 -269.55,314.12 -239.81,1.67 -285.01,-121.71 -349.18,-300.51z"/>
  <path class="fil3" d="M19063.66 7208.01c-282.06,-1.58 -371.19,-5.98 -242.47,257.32 257.37,526.47 1369.89,369.49 1201.06,-306.71 -88.29,-353.61 -444.08,-322.96 -774.38,-455.68 -199.59,-80.2 -155.88,-254.78 46.5,-288.72 366.83,-61.54 341.6,187.32 392.56,215.57 59.2,9.33 264.3,21.47 293.6,-23.34 31.4,-48.01 -43.89,-423.9 -484.65,-458.75 -201.49,-15.94 -398.47,19.97 -526.65,117.51 -108.74,82.74 -200.47,284.4 -118.74,483.15 146.99,357.48 711.42,285 840.97,454.26 62.48,81.62 9.46,184.6 -36.53,227.77 -115.01,107.93 -366.8,98.04 -480.03,0.86 -73.08,-62.75 -74.96,-131.51 -111.23,-223.23z"/>
  <path class="fil3" d="M39907.17 7120.15c-1.04,-49.17 155.67,-478.51 182.22,-553.63 73.61,38.16 101.21,198.03 130.37,273.8 27.23,70.68 88.82,210.79 93.3,282.52l-405.89 -2.69zm1000.76 621.63l0 -37.79c-54.06,-40.84 -277.2,-647.3 -319.35,-752.84l-291.89 -730.98c-52.12,-96.82 -341.67,-57.63 -363.39,-22.51l-144.49 369.69c-75.16,192.02 -448.04,1100.61 -440.81,1174.6l296.21 1.82c75.63,-55.13 97.02,-272.21 161.14,-356.45l617.15 -2.45c63.63,113.24 82.45,265.9 154.59,358.97l330.86 -2.06z"/>
  <path class="fil3" d="M21128.31 7125.91c-445.88,-16.59 -444.79,48.46 -373.72,-129.91 41.62,-104.4 115.84,-353.85 162.78,-431.14 64.9,55.72 209.84,514.38 210.94,561.05zm-955.94 617.48l298.4 0.94 145.05 -359.07 621.11 -2.26c77.12,105.99 82.88,277.78 164.98,360.54l305.55 0.23c9.15,-62 -380.47,-987.9 -454.93,-1175.99 -42.78,-108.07 -112.21,-310.53 -165.25,-393.64 -44.43,-8.12 -254.44,-12.15 -295.95,-2.52 -61.87,14.36 -59.2,72.89 -111.59,206.49 -62.62,159.67 -527.48,1293.55 -507.38,1365.27z"/>
  <path class="fil3" d="M31717.01 6180.17c-21.62,54.02 -8.73,527.85 -8.59,643.14 0.32,588.08 0.14,967.28 666.41,948.69 650.09,-18.12 585.41,-467.91 586.5,-1044.57 0,-20.97 14.9,-612.22 -23.05,-545.33l-290.07 21.4c-0.79,3.65 -2.81,9.28 -3.61,13.88l-1.92 717.78c-1.04,307.67 36.18,620.25 -363.89,562.08 -145.22,-21.11 -215.6,-87.29 -239.43,-227.87 -24.41,-144.08 -7.69,-855.72 -15.92,-1096.47 -90.32,-10.43 -237.47,-18.84 -306.43,7.28z"/>
  <path class="fil3" d="M14641.57 6441.75c721.7,-100.14 633.44,394.74 363.35,431.85 -90.76,12.47 -276.85,26.61 -366.67,7.05l3.32 -438.89zm-19.77 1297.07c2.11,-3.89 4.2,-14.52 4.77,-12.4 0.58,2.15 3.61,-9.41 4.32,-12.74 15.41,-72.58 5.86,-472.48 7.03,-556.04 224.55,-16.47 500.96,27.15 675.17,-89.78 340.66,-228.64 283.39,-855.46 -230.21,-890.3 -145.47,-9.87 -634.77,-25.36 -757.56,-1.89 -29.56,147.2 -2.89,1119.46 -7.32,1414.98 -1.7,112.41 -30.48,153 78.03,156.88 69,2.47 168.02,5.47 225.77,-8.71z"/>
  <path class="fil3" d="M34610.39 7267.04c-50.02,-26.88 -236.79,-86.62 -310.03,-96.87 -47.12,202.85 -166.34,374.81 -433.74,319.08 -394.52,-82.21 -390.69,-898.51 -61.46,-1041.04 97.54,-42.22 240.26,-40.25 326.74,8.39 105.72,59.47 113.61,120.83 173.74,220.74 76.05,-11.8 243.74,-47.15 301.82,-79.26 -223.89,-712.38 -1362.51,-615.59 -1367.04,369.24 -1.9,410.88 207.56,707.31 541.12,784.1 450.33,103.67 742.54,-145.99 828.85,-484.37z"/>
  <path class="fil3" d="M23731.01 7270.74c-50.97,-37.07 -221.26,-87.46 -288.86,-98.44 -59.7,99.22 -104.66,380.35 -444.73,318.14 -392.59,-71.82 -399.69,-872.93 -83.13,-1035.05 245.85,-125.88 443.76,24.17 504.58,214.87 70.49,0.08 250.82,-45.8 311.8,-65.09 -142.36,-669.02 -1359.34,-680.51 -1359.83,361.98 -0.48,1012.79 1217.55,1028.25 1360.17,303.6z"/>
  <path class="fil3" d="M34782.48 6170.68c-16.99,59.33 -20.59,206.81 3.56,256.09 85.64,41.48 334.13,7.91 450.54,10.95l4.16 1136.87c-1.41,112.95 -67.04,226.59 303.48,164.94 47.29,-86.36 16.14,-1040.23 18.38,-1281.49l29.97 -11.9c3.23,-0.93 8.69,-3.57 12.8,-4.53 4.31,-0.98 8.88,-2.24 13.85,-3.07l394.77 -0.63 5.63 -265.31 -1237.14 -1.93z"/>
  <path class="fil3" d="M28668.24 6432.67l459.2 6.36c18.89,156.68 5.46,744.69 5.55,975.52 0.09,287.53 -80.43,391.74 307.63,325.42 63.01,-146.81 -40.04,-1105.69 21.37,-1286.73 21.95,-26.79 177.31,-15.13 212.23,-14.88 76.72,0.55 159.47,7.93 234.1,-3.9l4.54 -259.98 -1237.72 -4.24 -6.9 262.44z"/>
 </g>
</svg>
