<?xml version="1.0" encoding="UTF-8"?>
<!DOCTYPE svg PUBLIC "-//W3C//DTD SVG 1.1//EN" "http://www.w3.org/Graphics/SVG/1.1/DTD/svg11.dtd">
<!-- Creator: CorelDRAW 2018 (64 Bit) -->
<svg xmlns="http://www.w3.org/2000/svg" xml:space="preserve" width="315.207mm" height="78.8433mm" version="1.1" style="shape-rendering:geometricPrecision; text-rendering:geometricPrecision; image-rendering:optimizeQuality; fill-rule:evenodd; clip-rule:evenodd"
viewBox="0 0 51872.66 12975.02"
 xmlns:xlink="http://www.w3.org/1999/xlink">
 <defs>
  <style type="text/css">
   <![CDATA[
    .fil0 {fill:#0078B7}
    .fil1 {fill:#1CBEDB}
    .fil3 {fill:black;fill-rule:nonzero}
    .fil2 {fill:#0080B7;fill-rule:nonzero}
   ]]>
  </style>
 </defs>
 <g id="Capa_x0020_1">
  <metadata id="CorelCorpID_0Corel-Layer"/>
  <path class="fil0" d="M5840.9 7811.27l1632.18 21.81 1396.65 0c154.71,0 302.95,29.03 439.58,81.91 459.16,177.68 786.98,624.75 786.98,1144.66 0,519.9 -327.82,966.95 -786.98,1144.63 -136.62,52.88 -284.87,81.91 -439.58,81.91l-1396.65 0 0 13.77 -3971.88 -0.08 5.97 2675.16 2333.73 0 1632.18 0 1369.89 0c157.74,0 313.35,-9.48 466.33,-27.89 1930.39,-232.32 3439.31,-1887.37 3439.31,-3877.75 0,-1391.28 -737.28,-2618.74 -1840.42,-3310.94 -149.49,275.24 -331.19,530.73 -539.86,761.42 628.02,-694.97 1010.39,-1614.08 1010.39,-2614.22 0,-2148.11 -1757.53,-3905.64 -3905.64,-3905.64l-1632.18 0 -3955.01 0 -2.7 2209.56 1595.25 -2104.82 9.96 2604.41 1215.77 1.48c941.6,0 1883.21,0 2824.81,0 674.61,0 1226.55,551.94 1226.55,1226.57 0,674.59 -551.94,1226.54 -1226.55,1226.54l-4039.25 0 5.92 2647.52 2345.25 0zm4519.79 -1282.98c-38.39,42.2 -77.68,83.6 -117.85,124.1 40.15,-40.52 79.47,-81.89 117.85,-124.1zm-135.64 141.89c-14.56,14.5 -29.28,28.87 -44.02,43.15 14.75,-14.3 29.46,-28.65 44.02,-43.15zm-61.02 59.64c-17.97,17.13 -36.07,34.05 -54.37,50.8 18.3,-16.75 36.44,-33.67 54.37,-50.8zm-81.63 75.52c-10.47,9.43 -21,18.78 -31.55,28.12 10.55,-9.35 21.08,-18.69 31.55,-28.12zm-1852.47 931.73c-10.37,2.06 -20.77,4.03 -31.15,6.02 10.4,-1.99 20.78,-3.97 31.15,-6.02zm-78.93 14.89c-23.06,4.08 -46.18,7.98 -69.38,11.6 23.2,-3.64 46.33,-7.52 69.38,-11.6zm-110.03 17.69c-15.02,2.22 -30.1,4.31 -45.17,6.39 15.07,-2.07 30.13,-4.18 45.17,-6.39zm-83.21 11.42c-25.77,3.23 -51.61,6.25 -77.56,8.95 25.94,-2.7 51.79,-5.74 77.56,-8.95zm-105.09 11.62c-20.32,1.99 -40.71,3.82 -61.12,5.48 20.41,-1.66 40.8,-3.49 61.12,-5.48zm-91.37 7.87c-27.88,2.06 -55.8,3.9 -83.83,5.36 28.03,-1.46 55.97,-3.32 83.83,-5.36zm-98.64 6.02c-25.2,1.22 -50.46,2.17 -75.77,2.91 25.33,-0.74 50.57,-1.7 75.77,-2.91zm-100.37 3.55c-29.67,0.67 -59.39,1.14 -89.23,1.14 29.84,0 59.56,-0.48 89.23,-1.14z"/>
  <polygon class="fil0" points="1489.81,2336.79 -0,4096.97 -0,12975.02 1094.09,12975.02 1094.09,5180.17 1489.81,4756.6 "/>
  <polygon class="fil0" points="4434.94,265 3445.53,71.83 1886.68,2183.2 1883.19,4333.66 2786.19,3399.04 2786.19,3715.73 2786.19,12975.02 4440.85,12975.02 4434.94,7496.93 "/>
  <polygon class="fil1" points="1204.11,5200.16 1204.11,12975.02 2693.92,12975.02 2693.92,3605.57 "/>
  <path class="fil2" d="M13974.06 9826.89l0 -1996.66 1477.98 0 0 337.43 -1073.62 0 0 443.39 998.31 0 0 337.43 -998.31 0 0 540.98 1112.66 0 0 337.43 -1517.01 0zm1854.43 0l0 -1996.66 605.59 0 357.88 1361.78 353.69 -1361.78 606.99 0 0 1996.66 -373.68 0 -1.38 -1571.85 -393.66 1571.85 -388.56 0 -391.8 -1571.85 -1.38 1571.85 -373.68 0zm2328.51 0l0 -1996.66 646.5 0c244.93,0 404.34,9.76 478.71,29.75 114.32,30.21 210.07,95.27 287.22,195.67 77.17,100.39 115.74,230.07 115.74,389 0,122.7 -22.32,225.42 -66.47,309.07 -44.61,83.67 -100.85,149.2 -169.18,197.07 -68.33,47.41 -138.04,79.01 -208.69,94.35 -96.21,19.06 -235.17,28.82 -417.36,28.82l-262.12 0 0 752.93 -404.36 0zm404.36 -1659.23l0 568.88 219.83 0c158.49,0 263.98,-10.68 317.43,-31.6 53.45,-20.92 95.28,-53.45 125.5,-98.53 30.2,-44.63 45.54,-96.22 45.54,-155.71 0,-72.97 -21.38,-132.92 -63.67,-180.32 -42.75,-47.41 -96.21,-77.17 -161.74,-89.24 -47.87,-8.84 -144.08,-13.48 -289.1,-13.48l-193.79 0zm1455.65 1659.23l0 -1996.66 849.13 0c213.33,0 368.56,18.14 465.23,53.91 97.14,35.79 174.29,99.46 232.39,191.03 58.11,92.03 87.39,196.59 87.39,314.65 0,150.12 -43.69,273.74 -131.54,371.35 -87.83,97.6 -218.91,158.96 -393.66,184.51 86.92,50.67 158.49,106.44 214.73,167.32 56.71,60.89 132.92,169.18 228.67,324.41l243.54 389.48 -481.97 0 -289.08 -435.96c-103.64,-154.78 -174.75,-252.36 -213.33,-292.8 -38.11,-39.97 -78.55,-67.87 -121.32,-82.74 -43.22,-14.86 -111.07,-22.3 -204.03,-22.3l-81.79 0 0 833.8 -404.36 0zm404.36 -1151.71l298.38 0c193.35,0 313.71,-8.36 362.05,-24.62 47.87,-16.28 85.99,-44.63 112.94,-84.6 27.42,-39.96 40.91,-90.15 40.91,-150.12 0,-67.39 -18.14,-121.3 -53.93,-163.14 -35.78,-41.36 -86.45,-67.39 -151.5,-78.07 -33.01,-4.66 -131.08,-6.98 -294.21,-6.98l-314.64 0 0 507.53zm1609.5 1151.71l0 -1996.66 1477.98 0 0 337.43 -1073.62 0 0 443.39 998.31 0 0 337.43 -998.31 0 0 540.98 1112.66 0 0 337.43 -1517.01 0zm1754.04 -646.96l393.2 -39.04c23.7,131.52 71.11,227.73 143.14,289.56 72.05,61.81 169.18,92.49 291.42,92.49 129.2,0 226.81,-27.43 292.34,-82.27 65.53,-54.85 98.53,-118.98 98.53,-192.41 0,-47.41 -13.94,-87.39 -41.36,-120.84 -27.42,-33 -75.77,-61.81 -144.54,-85.99 -46.95,-16.74 -153.85,-45.55 -321.17,-87.37 -215.19,-53.93 -366.23,-119.92 -453.15,-198.47 -122.22,-110.14 -183.11,-244.46 -183.11,-402.96 0,-101.78 28.82,-197.51 85.99,-286.3 57.63,-88.77 140.36,-156.16 248.64,-202.63 108.3,-46.47 238.43,-69.73 391.8,-69.73 249.58,0 437.81,55.31 563.77,166.39 126.42,111.08 192.41,258.88 198.91,444.32l-404.34 13.96c-17.2,-103.18 -53.91,-177.07 -110.16,-222.17 -56.23,-45.07 -140.82,-67.85 -253.29,-67.85 -116.2,0 -207.29,24.16 -272.82,72.49 -42.29,31.15 -63.69,72.51 -63.69,124.56 0,47.41 19.99,87.85 59.97,121.32 50.65,43.22 173.82,87.83 369.49,134.3 195.67,46.01 340.21,94.36 433.63,143.62 93.89,49.73 167.32,117.12 220.29,203.11 52.99,85.99 79.49,191.95 79.49,317.91 0,114.32 -31.61,221.69 -95.28,321.61 -63.67,99.93 -153.38,174.29 -269.56,222.63 -116.2,48.79 -261.2,72.97 -434.56,72.97 -252.38,0 -446.19,-58.09 -581.43,-174.75 -135.26,-116.2 -215.65,-285.84 -242.14,-508.46zm3764.64 646.96l-435.49 0 -172.43 -454.55 -800.8 0 -165.92 454.55 -427.6 0 775.24 -1996.66 427.12 0 799.88 1996.66zm-738.99 -791.96l-277.48 -738.99 -269.56 738.99 547.04 0zm2902.49 55.77l390.4 119.9c-59.95,219.85 -159.88,382.98 -299.31,489.87 -139.42,106.44 -316.03,159.88 -530.3,159.88 -265.38,0 -483.35,-90.63 -654.39,-271.88 -170.57,-181.27 -256.1,-428.99 -256.1,-743.63 0,-332.31 85.99,-590.73 257.48,-774.78 171.51,-184.05 397.38,-276.08 677.18,-276.08 244.46,0 442.93,72.51 595.37,217.06 91.09,85.51 158.96,208.21 204.49,368.55l-398.76 94.82c-23.71,-103.18 -72.97,-184.99 -147.8,-244.94 -75.29,-59.95 -166.39,-89.69 -273.3,-89.69 -148.26,0 -268.62,52.97 -360.65,159.42 -92.49,105.96 -138.5,277.92 -138.5,515.89 0,251.9 45.54,431.78 136.16,538.68 91.1,107.36 209.15,160.8 354.63,160.8 107.36,0 199.85,-33.92 277,-102.25 77.17,-68.31 132.94,-175.21 166.39,-321.61zm653 -250.06c0,-203.57 30.68,-374.6 91.57,-513.1 45.09,-101.78 107.36,-193.33 185.91,-274.2 78.55,-80.88 164.53,-140.84 257.94,-180.33 124.56,-52.53 268.18,-79.03 430.85,-79.03 294.66,0 529.82,91.57 706.92,274.22 176.61,183.13 264.92,437.35 264.92,763.16 0,323.01 -87.85,575.84 -263.06,758.03 -175.23,182.65 -409.94,273.76 -703.21,273.76 -296.98,0 -533.54,-90.63 -708.77,-272.36 -175.21,-181.25 -263.06,-431.31 -263.06,-750.15zm415.52 -13.48c0,226.35 52.51,397.86 157.1,514.98 104.57,116.65 237.49,175.21 398.3,175.21 161.28,0 293.28,-58.09 396.92,-173.83 103.17,-116.18 154.76,-290.02 154.76,-521.93 0,-229.14 -50.19,-400.18 -151.04,-512.64 -100.4,-112.94 -233.78,-169.18 -400.64,-169.18 -166.39,0 -300.71,57.15 -402.5,171.03 -101.78,114.32 -152.9,286.3 -152.9,516.35zm1837.23 999.73l0 -1996.66 391.34 0 821.72 1338.08 0 -1338.08 373.67 0 0 1996.66 -403.88 0 -809.16 -1312.51 0 1312.51 -373.68 0zm1907.89 -646.96l393.2 -39.04c23.7,131.52 71.11,227.73 143.14,289.56 72.05,61.81 169.18,92.49 291.42,92.49 129.2,0 226.81,-27.43 292.34,-82.27 65.53,-54.85 98.53,-118.98 98.53,-192.41 0,-47.41 -13.94,-87.39 -41.36,-120.84 -27.42,-33 -75.77,-61.81 -144.54,-85.99 -46.95,-16.74 -153.85,-45.55 -321.17,-87.37 -215.19,-53.93 -366.23,-119.92 -453.15,-198.47 -122.22,-110.14 -183.11,-244.46 -183.11,-402.96 0,-101.78 28.82,-197.51 85.99,-286.3 57.63,-88.77 140.36,-156.16 248.64,-202.63 108.3,-46.47 238.43,-69.73 391.8,-69.73 249.58,0 437.81,55.31 563.77,166.39 126.42,111.08 192.41,258.88 198.91,444.32l-404.34 13.96c-17.2,-103.18 -53.91,-177.07 -110.16,-222.17 -56.23,-45.07 -140.82,-67.85 -253.29,-67.85 -116.2,0 -207.29,24.16 -272.82,72.49 -42.29,31.15 -63.69,72.51 -63.69,124.56 0,47.41 19.99,87.85 59.97,121.32 50.65,43.22 173.82,87.83 369.49,134.3 195.67,46.01 340.21,94.36 433.63,143.62 93.89,49.73 167.32,117.12 220.29,203.11 52.99,85.99 79.49,191.95 79.49,317.91 0,114.32 -31.61,221.69 -95.28,321.61 -63.67,99.93 -153.38,174.29 -269.56,222.63 -116.2,48.79 -261.2,72.97 -434.56,72.97 -252.38,0 -446.19,-58.09 -581.43,-174.75 -135.26,-116.2 -215.65,-285.84 -242.14,-508.46zm2414.94 646.96l0 -1659.23 -591.19 0 0 -337.43 1583.94 0 0 337.43 -588.41 0 0 1659.23 -404.34 0zm1254.41 0l0 -1996.66 849.13 0c213.33,0 368.56,18.14 465.23,53.91 97.14,35.79 174.29,99.46 232.39,191.03 58.11,92.03 87.39,196.59 87.39,314.65 0,150.12 -43.69,273.74 -131.54,371.35 -87.83,97.6 -218.91,158.96 -393.66,184.51 86.92,50.67 158.49,106.44 214.73,167.32 56.71,60.89 132.92,169.18 228.67,324.41l243.54 389.48 -481.97 0 -289.08 -435.96c-103.64,-154.78 -174.75,-252.36 -213.33,-292.8 -38.11,-39.97 -78.55,-67.87 -121.32,-82.74 -43.22,-14.86 -111.07,-22.3 -204.03,-22.3l-81.79 0 0 833.8 -404.36 0zm404.36 -1151.71l298.38 0c193.35,0 313.71,-8.36 362.05,-24.62 47.87,-16.28 85.99,-44.63 112.94,-84.6 27.42,-39.96 40.91,-90.15 40.91,-150.12 0,-67.39 -18.14,-121.3 -53.93,-163.14 -35.78,-41.36 -86.45,-67.39 -151.5,-78.07 -33.01,-4.66 -131.08,-6.98 -294.21,-6.98l-314.64 0 0 507.53zm1609.5 -844.95l404.36 0 0 1082c0,171.96 5.1,283.04 14.86,333.71 17.2,81.79 57.63,147.78 121.78,197.05 64.59,49.73 152.44,74.37 263.98,74.37 112.94,0 198.45,-23.24 256.08,-70.19 57.63,-46.93 92.03,-104.11 103.64,-172.42 11.62,-68.33 17.67,-181.27 17.67,-339.29l0 -1105.23 404.34 0 0 1049.92c0,239.82 -10.68,409.46 -32.53,508.46 -21.84,98.99 -61.81,182.65 -120.36,250.97 -58.11,68.33 -136.18,122.24 -233.78,162.67 -98.07,40.43 -225.42,60.89 -382.98,60.89 -190.09,0 -334.17,-21.84 -432.24,-65.99 -98.07,-44.15 -175.68,-101.32 -232.85,-171.97 -57.17,-70.65 -94.35,-144.08 -112.47,-221.69 -26.5,-114.34 -39.51,-283.52 -39.51,-507.06l0 -1066.2zm3291.05 1260.47l390.4 119.9c-59.95,219.85 -159.88,382.98 -299.31,489.87 -139.42,106.44 -316.03,159.88 -530.3,159.88 -265.38,0 -483.35,-90.63 -654.39,-271.88 -170.57,-181.27 -256.1,-428.99 -256.1,-743.63 0,-332.31 85.99,-590.73 257.48,-774.78 171.51,-184.05 397.38,-276.08 677.18,-276.08 244.46,0 442.93,72.51 595.37,217.06 91.09,85.51 158.96,208.21 204.49,368.55l-398.76 94.82c-23.71,-103.18 -72.97,-184.99 -147.8,-244.94 -75.29,-59.95 -166.39,-89.69 -273.3,-89.69 -148.26,0 -268.62,52.97 -360.65,159.42 -92.49,105.96 -138.5,277.92 -138.5,515.89 0,251.9 45.54,431.78 136.16,538.68 91.1,107.36 209.15,160.8 354.63,160.8 107.36,0 199.85,-33.92 277,-102.25 77.17,-68.31 132.94,-175.21 166.39,-321.61zm1185.64 736.19l0 -1659.23 -591.19 0 0 -337.43 1583.94 0 0 337.43 -588.41 0 0 1659.23 -404.34 0zm1120.55 -986.25c0,-203.57 30.68,-374.6 91.57,-513.1 45.09,-101.78 107.36,-193.33 185.91,-274.2 78.55,-80.88 164.53,-140.84 257.94,-180.33 124.56,-52.53 268.18,-79.03 430.85,-79.03 294.66,0 529.82,91.57 706.92,274.22 176.61,183.13 264.92,437.35 264.92,763.16 0,323.01 -87.85,575.84 -263.06,758.03 -175.23,182.65 -409.94,273.76 -703.21,273.76 -296.98,0 -533.54,-90.63 -708.77,-272.36 -175.21,-181.25 -263.06,-431.31 -263.06,-750.15zm415.52 -13.48c0,226.35 52.51,397.86 157.1,514.98 104.57,116.65 237.49,175.21 398.3,175.21 161.28,0 293.28,-58.09 396.92,-173.83 103.17,-116.18 154.76,-290.02 154.76,-521.93 0,-229.14 -50.19,-400.18 -151.04,-512.64 -100.4,-112.94 -233.78,-169.18 -400.64,-169.18 -166.39,0 -300.71,57.15 -402.5,171.03 -101.78,114.32 -152.9,286.3 -152.9,516.35zm1837.23 999.73l0 -1996.66 849.13 0c213.33,0 368.56,18.14 465.23,53.91 97.14,35.79 174.29,99.46 232.39,191.03 58.11,92.03 87.39,196.59 87.39,314.65 0,150.12 -43.69,273.74 -131.54,371.35 -87.83,97.6 -218.91,158.96 -393.66,184.51 86.92,50.67 158.49,106.44 214.73,167.32 56.71,60.89 132.92,169.18 228.67,324.41l243.54 389.48 -481.97 0 -289.08 -435.96c-103.64,-154.78 -174.75,-252.36 -213.33,-292.8 -38.11,-39.97 -78.55,-67.87 -121.32,-82.74 -43.22,-14.86 -111.07,-22.3 -204.03,-22.3l-81.79 0 0 833.8 -404.36 0zm404.36 -1151.71l298.38 0c193.35,0 313.71,-8.36 362.05,-24.62 47.87,-16.28 85.99,-44.63 112.94,-84.6 27.42,-39.96 40.91,-90.15 40.91,-150.12 0,-67.39 -18.14,-121.3 -53.93,-163.14 -35.78,-41.36 -86.45,-67.39 -151.5,-78.07 -33.01,-4.66 -131.08,-6.98 -294.21,-6.98l-314.64 0 0 507.53zm3408.17 1151.71l-435.49 0 -172.43 -454.55 -800.8 0 -165.92 454.55 -427.6 0 775.24 -1996.66 427.12 0 799.88 1996.66zm-738.99 -791.96l-277.48 -738.99 -269.56 738.99 547.04 0z"/>
  <path class="fil3" d="M15212.45 6845.72l-1238.38 0 0 -3733.82 591.19 0c86.23,0 176.02,0.89 268.47,3.55 93.34,2.67 182.24,7.11 267.59,13.35 84.46,6.22 160.91,13.33 230.26,22.22 68.44,8.89 121.78,18.68 160.01,31.12 219.58,64 399.17,175.13 538.74,333.38 136.9,152.9 205.36,343.16 205.36,570.74 0,138.68 -34.67,266.7 -104.02,383.16 -54.22,116.45 -146.68,225.8 -278.25,328.03 429.39,206.25 643.64,524.53 643.64,954.8 0,220.47 -52.46,411.6 -158.25,573.4 -118.24,175.13 -256.92,307.59 -416.95,397.38 -175.13,81.79 -411.6,122.68 -709.42,122.68zm-174.24 -677.42c296.93,0 498.72,-34.67 606.3,-104.01 105.78,-81.79 159.14,-192.03 159.14,-328.94 0,-154.68 -57.8,-282.69 -174.26,-383.16 -128.91,-92.45 -330.7,-138.68 -607.19,-138.68l-338.71 0 0 954.79 354.72 0zm-16.01 -1578.86c169.8,0 303.15,-40.01 398.29,-120.02 80,-75.57 120,-174.24 120,-298.71 0,-125.35 -40.01,-217.8 -120,-276.49 -85.34,-70.22 -206.25,-104.9 -364.5,-104.9l-372.5 0 0 800.11 338.71 0zm3518.12 -1477.53l17.77 51.56 -364.48 938.79 -504.96 1281.95 1008.14 0 -242.7 -607.19 364.5 -939.68 1164.59 3005.72 -750.33 0 -275.58 -765.44 -1529.09 0 -312.92 765.44 -728.98 0 1440.18 -3731.15 713.88 0zm2677.13 3733.82c-499.63,0 -880.12,-259.59 -1140.6,-777.88l580.51 -346.71c170.69,319.15 363.61,479.17 578.75,479.17 112.91,0 211.58,-32.9 296.93,-98.67 76.46,-71.13 114.69,-148.47 114.69,-232.04 0,-81.79 -27.57,-164.47 -80.9,-247.13 -34.67,-40.01 -85.34,-89.8 -151.14,-150.25 -65.78,-59.56 -148.46,-131.57 -247.15,-214.25 -189.35,-158.25 -346.71,-297.82 -470.28,-418.72 -124.45,-120 -215.14,-223.14 -272.03,-308.48 -121.8,-173.36 -182.24,-343.16 -182.24,-510.29 0,-249.8 93.34,-464.05 280.92,-642.75 194.7,-176.91 424.95,-265.81 692.55,-265.81 184.02,0 355.6,44.45 512.94,132.46 81.79,40.01 166.25,97.8 253.37,172.47 86.23,74.68 178.69,165.36 275.6,272.93l-512.96 445.38c-171.58,-240.93 -348.49,-361.82 -528.95,-361.82 -100.47,0 -171.58,21.33 -213.36,64.89 -56.02,43.56 -83.57,98.67 -83.57,167.13 0,51.56 16.88,105.78 49.78,160.91 32.9,34.67 90.68,88.9 173.36,162.67 81.79,73.79 190.24,168.91 324.48,285.38 155.58,129.79 274.71,233.82 356.5,309.37 53.34,48.89 93.34,83.57 120,104.91 242.7,233.8 364.5,503.16 364.5,807.22 0,297.8 -100.45,541.39 -299.59,728.97 -198.25,187.59 -462.29,280.93 -792.1,280.93zm3334.08 -3733.82l17.77 51.56 -364.48 938.79 -504.96 1281.95 1008.14 0 -242.7 -607.19 364.5 -939.68 1164.59 3005.72 -750.33 0 -275.58 -765.44 -1529.09 0 -312.92 765.44 -728.98 0 1440.18 -3731.15 713.88 0zm5495.26 0l624.98 3734.71 -674.76 0 -400.94 -2362.08 -781.43 2362.08 -624.98 0 -800.11 -2362.08 -398.27 2362.08 -695.2 0 643.64 -3734.71 692.53 0 869.44 2607.45 867.66 -2607.45 677.42 0zm3149.18 0l0 693.42 -1546.87 0 0 832.12 1546.87 0 0 677.41 -1546.87 0 0 837.45 1546.87 0 0 693.42 -2240.29 0 0 -3733.82 2240.29 0zm3400.77 0l0 3734.71 -679.19 0 -1614.44 -2448.32 0 2448.32 -693.42 0 0 -3734.71 677.42 0 1594.87 2466.11 0 -2466.11 714.75 0zm3071.85 0l0 698.75 -337.82 0 -682.76 0 0 3036.84 -730.76 0 0 -3036.84 -664.08 0 -338.71 0 0 -698.75 2754.13 0zm1660.09 3088.4c157.36,0 304.04,-29.34 438.28,-88.01 134.25,-59.56 258.7,-145.79 373.39,-260.48 230.26,-225.8 345.82,-512.07 345.82,-861.44 0,-334.27 -115.56,-622.31 -345.82,-863.22 -222.25,-232.04 -498.72,-348.49 -830.32,-348.49 -334.27,0 -609.85,116.45 -826.77,348.49 -222.26,224.03 -333.38,511.18 -333.38,863.22 0,395.6 144.01,710.31 432.05,945.01 216.92,176.91 465.84,264.92 746.76,264.92zm-1.78 645.42c-528.95,0 -971.67,-182.24 -1329.06,-546.74 -353.82,-378.72 -530.73,-815.22 -530.73,-1309.49 0,-351.15 83.57,-666.76 249.81,-947.68 159.14,-285.38 384.94,-511.18 676.54,-680.09 289.8,-166.25 600.97,-249.81 933.44,-249.81 496.07,0 926.35,182.24 1290.83,546.74 367.17,371.61 551.19,815.22 551.19,1330.84 0,527.17 -177.8,969 -533.4,1325.51 -359.17,353.82 -794.78,530.73 -1308.62,530.73zm4283.88 0c-499.63,0 -880.12,-259.59 -1140.6,-777.88l580.51 -346.71c170.69,319.15 363.61,479.17 578.75,479.17 112.91,0 211.58,-32.9 296.93,-98.67 76.46,-71.13 114.69,-148.47 114.69,-232.04 0,-81.79 -27.57,-164.47 -80.9,-247.13 -34.67,-40.01 -85.34,-89.8 -151.14,-150.25 -65.78,-59.56 -148.46,-131.57 -247.15,-214.25 -189.35,-158.25 -346.71,-297.82 -470.28,-418.72 -124.45,-120 -215.14,-223.14 -272.03,-308.48 -121.8,-173.36 -182.24,-343.16 -182.24,-510.29 0,-249.8 93.34,-464.05 280.92,-642.75 194.7,-176.91 424.95,-265.81 692.55,-265.81 184.02,0 355.6,44.45 512.94,132.46 81.79,40.01 166.25,97.8 253.37,172.47 86.23,74.68 178.69,165.36 275.6,272.93l-512.96 445.38c-171.58,-240.93 -348.49,-361.82 -528.95,-361.82 -100.47,0 -171.58,21.33 -213.36,64.89 -56.02,43.56 -83.57,98.67 -83.57,167.13 0,51.56 16.88,105.78 49.78,160.91 32.9,34.67 90.68,88.9 173.36,162.67 81.79,73.79 190.24,168.91 324.48,285.38 155.58,129.79 274.71,233.82 356.5,309.37 53.34,48.89 93.34,83.57 120,104.91 242.7,233.8 364.5,503.16 364.5,807.22 0,297.8 -100.45,541.39 -299.59,728.97 -198.25,187.59 -462.29,280.93 -792.1,280.93zm3977.72 1.78l-762.77 0 -679.2 -1276.61 -414.27 0 0 1276.61 -714.76 0 0 -3735.59 1369.07 0c332.49,0 616.07,117.35 850.78,352.04 233.8,233.82 351.15,518.29 351.15,851.67l0 36.45c0,504.96 -243.59,877.44 -730.76,1117.48l730.76 1377.95zm-1271.28 -1970.03c141.36,0 264.92,-54.22 368.94,-161.8 104.01,-104.01 155.57,-232.02 155.57,-383.15 0,-147.58 -51.56,-271.16 -155.57,-370.72 -102.25,-100.45 -225.8,-151.14 -368.94,-151.14l-584.95 0 0 1066.81 584.95 0zm2177.5 -1765.56l0 3056.39 1377.95 0 0 677.42 -2071.37 0 0 -3733.82 693.42 0z"/>
 </g>
</svg>
