<?xml version="1.0" encoding="UTF-8"?>
<!DOCTYPE svg PUBLIC "-//W3C//DTD SVG 1.1//EN" "http://www.w3.org/Graphics/SVG/1.1/DTD/svg11.dtd">
<!-- Creator: CorelDRAW 2020 (64-Bit) -->
<svg xmlns="http://www.w3.org/2000/svg" xml:space="preserve" width="40.4967mm" height="10.0128mm" version="1.1" style="shape-rendering:geometricPrecision; text-rendering:geometricPrecision; image-rendering:optimizeQuality; fill-rule:evenodd; clip-rule:evenodd"
viewBox="0 0 3795.73 938.49"
 xmlns:xlink="http://www.w3.org/1999/xlink"
 xmlns:xodm="http://www.corel.com/coreldraw/odm/2003">
 <defs>
  <style type="text/css">
   <![CDATA[
    .fil0 {fill:#FEFEFE}
   ]]>
  </style>
 </defs>
 <g id="Capa_x0020_1">
  <metadata id="CorelCorpID_0Corel-Layer"/>
  <path class="fil0" d="M322.49 741.31l-0.5 -181.09c17.93,-2.53 224.73,1.13 250.54,1.13 60.59,0 114.17,-10.2 148.54,39.67 28.78,41.78 15.42,104.03 -32.72,128.81 -31.67,16.31 -77.47,10.73 -115.82,10.72 -23.59,-0.01 -233.48,2.53 -250.04,0.76zm-0.01 -376.36l-0.52 -179.09c22.26,-2.01 167.18,-0.05 202.73,-0.06 37.89,-0.02 56.87,1.5 80.53,20.77 46.26,37.68 39.98,107.91 0.54,137.59 -26.35,19.83 -41.02,20.98 -81.08,20.98 -32.3,0 -184.47,1.75 -202.21,-0.19zm310.54 -364.95l-498.46 0 0.01 302.22c6.63,-1.21 59.76,-61.64 65.86,-64.28l0.52 699.54c33.17,2.11 133.42,0.25 173.82,0.25 57.94,0 115.89,0 173.83,0 91.19,0 147.1,8 227.18,-32.75 52.61,-26.77 103.82,-77.37 127.78,-133.81 40.43,-95.25 35.8,-187.52 -20.26,-274.96 -39.96,-62.33 -77.25,-76.07 -87.04,-87.96 3.53,-11.12 15.43,-32.14 22.66,-56.6 6.8,-22.97 9.4,-44.08 10.53,-69.38 2.17,-48.85 -9.19,-94.49 -27.37,-132.26 -26.78,-55.66 -65.61,-94.46 -115.01,-124.25 -8.3,-5.01 -16.47,-9.24 -26.12,-13.71 -8.48,-3.92 -22.31,-6.27 -27.94,-12.06z"/>
  <path class="fil0" d="M194.04 253.73c-6.11,1.43 -24.06,23.28 -28.35,28.38 -10.92,12.99 -78.84,80.18 -80.37,88.38l0.35 564.66c2.81,5.11 19.37,2.51 25.97,2.51 16.93,0 73.7,1.19 82.64,-0.57l-0.23 -683.36z"/>
  <path class="fil0" d="M-0 281.02l0 656.71 76.31 -0.24c2.62,-30.62 0.52,-70.24 0.52,-101.82l-0.02 -452.94c-0.33,-19.06 -2.09,-13.23 15.8,-33.39 15.25,-17.16 13.54,-7.19 13.43,-38.36l0.18 -150.22c-5.49,2.39 -1.56,0 -5.39,3.85l-61.61 72.33c-4.4,5.07 -7.91,10.4 -12.12,15.04 -5.5,6.07 -20.01,26.09 -27.1,29.03z"/>
  <path class="fil0" d="M1922.6 488.58l50.15 0.1 29.46 -170.62c9.25,12.61 49.68,154.48 59.85,170.36l44.65 0.24c3.73,-6.94 11.45,-33.61 14.27,-42.22l28.14 -85.12c3.43,-10.33 10.33,-34.88 15.02,-42.22l27.44 158.85c2.16,13.75 4.86,13.07 49.87,10.77 1.2,-4.96 -39.08,-253.25 -44.5,-272.79l-49.23 -0.71c-10.64,25.5 -57.75,178.56 -63.33,188.41 -3.7,-4.77 -14.29,-39.74 -16.38,-45.99 -5.46,-16.35 -10.54,-31.52 -15.98,-47.81l-31.95 -94 -49.98 -0.51 -47.49 273.24z"/>
  <path class="fil0" d="M2458.12 245.6l0 241.89c21.66,2.14 29.52,1.33 50.75,1.17l-0.13 -177.34c5.46,4.25 110.61,163.04 117.41,176.75l49.91 0.53c3.01,-42.13 0.81,-171.3 0.82,-211.11l-0.07 -61.17c-7.91,-2.56 -41.77,-1.51 -51.67,-0.9l-0.36 178.25c-6.8,-5.56 -29.99,-44.13 -37.76,-55.82 -12.84,-19.34 -23.95,-37.58 -36.89,-57.25 -12.6,-19.13 -24.75,-37.04 -36.96,-57.13 -4.48,-7.38 -3.56,-8.34 -13.98,-8.33 -8,0.01 -16.05,0.23 -24.07,0.14 -20.72,-0.22 -16.99,-5.62 -16.99,30.3z"/>
  <path class="fil0" d="M1071.96 438.9l0.07 -68.93c12.81,-2.11 41.81,-0.66 54.48,2.59 33.83,8.65 39.43,56.03 1.85,63.68 -14.08,2.87 -42.07,4.59 -56.4,2.66zm-0.19 -174.08c23.28,-0.38 65.51,-5.51 62.89,30.27 -2.33,31.82 -43.1,31.54 -62.51,27.98l-0.38 -58.24zm-51.51 223.66c29.01,2.21 64.86,0.2 94.5,0.35 36.17,0.17 51.62,-8.31 68.6,-26.36 31.76,-33.76 28.44,-87.06 -9.01,-113.72 -5.22,-3.72 -9.7,-5.18 -14.93,-9.04 1.45,-3.22 59.89,-54.48 -0.06,-105.21 -16.07,-13.59 -32.43,-16.42 -59.36,-18.64 -20.97,-1.73 -58.13,-1.72 -79.23,-0.41l-0.52 273.04z"/>
  <path class="fil0" d="M3492.59 266.34c29.24,-0.27 81.84,-8.17 80.8,39.78 -1,46.48 -55.22,38.44 -80.99,38.34l0.19 -78.12zm-52.6 221.96l52.57 0.45 -0.17 -93.24 30.85 0.01c6.45,15.86 16.26,31.34 23.96,45.84 8.46,15.95 17.55,31.61 24.92,47.04l54.99 0.46c-2.68,-13.36 -48.66,-88.23 -51.7,-102.1 79.36,-30.95 70.27,-164.65 -31.75,-171.17 -18.74,-1.2 -87.15,-2.46 -103.1,0.3l-0.57 272.41z"/>
  <path class="fil0" d="M3004.85 265.81c53.44,-10.25 94.5,27.35 101.57,69.38 9.06,53.91 -24.98,96.26 -65.32,104.82 -50.3,10.67 -95.03,-26.93 -102.26,-68.03 -9.81,-55.81 22.58,-97.83 66.01,-106.17zm2.62 -49.8c-117.93,12.99 -162,162.14 -72.57,241.27 24.03,21.26 58.91,34.97 104.81,30.42 70.85,-7.03 126.27,-71.27 117.15,-152.09 -7.7,-68.23 -70.27,-128.32 -149.4,-119.6z"/>
  <path class="fil0" d="M2263.79 226.46l-0.05 260.73c8.39,3.78 137.67,1.6 163.93,1.57l-0.39 -51.25c-23.57,0.15 -95,3.27 -112.81,-0.64 1,-69.44 -6.5,-60.74 17.11,-60.51l95.83 0.01 0.42 -49.48 -113.08 -0.3 -0.03 -59.42 112.68 -0.86 0.36 -51.06 -150.4 0.06c-14.91,0.01 -13.57,-3.42 -13.57,11.15z"/>
  <path class="fil0" d="M1196.87 488.48l53.57 0.22c3.15,-9.43 18.99,-50.15 23.81,-56.31 15.49,-0.89 101.69,-1.97 110.7,0.67l19.96 54.87 54.8 0.84c-2.86,-12.04 -62.72,-163.16 -73.49,-190.85l-12 -26.95c-7.69,14.74 -14.97,38.72 -21.5,54.76 -6.42,15.78 -3.27,13.84 2.45,28.67 2.52,6.54 9.74,21.67 9.25,27.63l-70.76 0.08c-0.2,-13.07 63.82,-155.09 60.97,-165.9l-52.35 -1 -105.42 273.27z"/>
  <path class="fil0" d="M1637.1 488.47l53.53 0.22c3.54,-10.03 18.49,-49.31 23.78,-56.28l110.71 -0.22 20.03 55.71 54.78 0.88 -62.75 -163.45c-3.66,-9.14 -7.04,-17.95 -10.75,-27.47l-9.54 -24.14c-2.08,-3.11 0.44,-0.46 -2.42,-2.74 -7.93,15.34 -14.44,38.05 -21.53,54.78 -10.54,24.85 13.31,37.41 11.66,56.26l-70.73 0.08c-0.65,-13.29 63.46,-153.55 61.14,-166.1l-52.53 -0.8 -105.38 273.25z"/>
  <path class="fil0" d="M1508.68 407.81c-6.13,2.02 -36.54,20.22 -41.04,24.38 39.04,92.15 186.29,64.29 160.11,-37.72 -10.65,-41.47 -73.59,-75.75 -93.97,-100.66 -14.37,-17.56 7.44,-42.33 36.26,-23.47 7.03,4.6 13.21,12.89 19.97,19.15 7.98,-5.85 12.2,-10 18.37,-15.91 5.41,-5.19 14.02,-10.77 18.01,-16.82 -24.79,-26.22 -61.41,-55.77 -106.25,-34.87 -39.11,18.24 -55.3,60.57 -24.74,100.8 16.58,21.84 22.14,23.6 39.01,39.06 12.45,11.41 32.21,24.99 41.05,37.08 22.76,31.1 -20.24,59.25 -48.9,31.45 -5.6,-5.43 -12.87,-18.92 -17.88,-22.47z"/>
  <path class="fil0" d="M3296.43 407.99c-7.2,0.85 -37.14,19.59 -42.71,23.84 16.79,31.73 44.58,63.35 99.25,55.51 41.63,-5.97 74.31,-42.23 61.01,-92.94 -9.27,-35.37 -50.5,-60.57 -73.91,-82.35 -7.48,-6.95 -41.07,-29.96 -16.15,-45.35 21.89,-13.53 44.39,15.01 52.25,22.86l36.55 -32.79c-84.6,-95.56 -185.11,-5.24 -130.97,65.65 23.27,30.47 52,46.9 79.14,75.54 16.04,16.94 4.86,42.29 -20.1,43.5 -25.35,1.24 -33.7,-19.25 -44.36,-33.46z"/>
  <path class="fil0" d="M2700.13 265.71l73.25 0.67 0.15 221.68c8.63,1.53 46,1.94 53.44,-0.42l0.13 -221.15c14.89,-0.6 64.99,1.88 74.39,-1.18l0.3 -48.95c-6.03,-1.93 -190.65,-2.53 -201.11,-0.35l-0.56 49.71z"/>
  <path class="fil0" d="M3643.88 488.47l151.75 0.28 0.09 -37.5c0.01,-1.22 -0.04,-5.25 -0.22,-6.27 -0.07,-0.37 0.74,-1.49 -1.99,-5.16l-98.95 -0.51 0.1 -223.25 -50.26 -0.77 -0.53 273.17z"/>
  <path class="fil0" d="M1157.86 706.78c3.92,1.36 10.95,0.91 16.08,0.96 8.84,0.08 9.16,1.46 9.56,-7.4 0.86,-18.62 -2.65,-95.74 1.42,-103.22l24.63 100.66c2.23,9.55 1.44,9.96 10.28,10.04 28.34,0.24 18.88,3.68 34.13,-55.11 2.74,-10.58 10.56,-48.08 13.89,-55.07 6.9,14.97 -3.65,94.18 2.92,109.99l24.15 -0.82 2.11 -35.41c0,-19.83 1.39,-101.31 -0.98,-109.46 -7.44,-1.61 -36.23,-1.62 -43.57,0.05 -6.88,14.88 -18.43,82.28 -26.09,95.44 -6.07,-10.76 -21.72,-91.07 -26.51,-95.12 -8.46,-3.51 -32.92,-1.78 -43.79,-0.79 -2.45,17.82 -0.37,53.42 -0.37,73.19l-0.05 55.83c-0.14,7.01 -0.86,8.21 0.87,13.82l1.3 2.42z"/>
  <path class="fil0" d="M1494.2 585.86c12.78,-0.12 45.22,-2.94 52.99,5.59 5.15,5.65 6.48,17.25 1.4,24.18 -7.99,10.89 -39.79,7.15 -56.25,6.78l1.86 -36.55zm55.98 55.32c0.48,-0.17 1.98,-0.64 2.48,-0.81 37.51,-12.22 34.35,-51.25 17.49,-68.76 -10.04,-10.41 -30.93,-10.58 -48.72,-10.54 -13.04,0.05 -47.9,-1.57 -58.29,0.93 -1.44,14.02 -1.54,138.81 0.93,144.48 0.03,0.02 25.52,6.35 28.03,-3.59 2.06,-8.21 -1.44,-43.5 1.29,-56.43 15.16,-2.39 23.2,1.5 30.46,9.77 39.1,44.53 16.55,55.48 68.62,51.01 0.15,-6.05 -6.13,-12.42 -9.38,-17.71 -5.9,-9.62 -15.05,-25.84 -22.69,-33.17 -2.37,-2.27 -3.97,-4.37 -7.16,-7.16 -2.62,-2.28 -4.43,-2.68 -6.79,-6.5l3.73 -1.51z"/>
  <path class="fil0" d="M2824.37 586.76c6.28,-2.27 29.96,-1.34 38.3,-1.12 27.58,0.72 29.52,35.48 -1.54,36.54 -10.03,0.34 -28.8,1.98 -37.71,-0.67 -0.22,-8.61 -1.87,-28.19 0.95,-34.75zm52.86 55.94c6.81,-4.59 26.94,-5.13 33.83,-26.52 5.64,-17.52 0.2,-34.95 -9.73,-44.06 -12.65,-11.63 -27.52,-11.08 -48.25,-11.03 -16.57,0.04 -43.36,-1.57 -58.67,0.62 -1.38,15.77 -1.82,138.75 0.97,145.9l26.5 -0.41c5.79,-15.51 -3.26,-48.21 2.61,-59.69 7.18,-4.13 21.45,-0.05 26.13,4.08 5.11,4.5 10.39,11.29 14.54,17.27 8,11.6 18.04,29.31 26.3,38.81 8.69,0.1 25.29,2.09 31.55,-1.38 2.88,-2.84 -27.57,-46.45 -31.79,-50.74 -4.23,-4.28 -10.13,-8.34 -13.98,-12.86z"/>
  <path class="fil0" d="M3546.35 622.5c-3.02,-42.46 0.22,-37.1 11.5,-36.87 13.7,0.27 33.3,-2.95 42.6,5.07 9.87,8.49 4.87,27.27 -6.38,30.57 -6.71,1.97 -38.7,1.3 -47.72,1.24zm52.95 20.19c7.71,-4.33 13.16,-2.94 20.93,-9.49 21.25,-17.93 20.17,-43.47 3.3,-60.82 -11.67,-12 -27.86,-11.31 -48.01,-11.3 -16.13,0.01 -43.95,-1.59 -58.66,0.67 -2.24,17.9 0.19,97.91 -0.42,128.82 -0.18,9.2 -1.41,12.82 2.02,15.73 4.09,2.46 22.49,2.82 25.78,-0.73 3.69,-3.72 1.93,-23.08 1.93,-29.37 0,-9.66 -1.44,-20.65 1.08,-29.89 14.49,-1.42 24.59,2.58 30.78,9.79 36.2,42.22 15.77,55.15 67.31,51.26 0.42,-7.21 -15.53,-28.76 -19.66,-35.04 -18.66,-28.39 -17.98,-20.22 -26.38,-29.63z"/>
  <path class="fil0" d="M2386.66 707.23c33.77,5.45 26.28,-4.43 26.29,-32.63 0,-20.28 -0.06,-40.36 -0.37,-60.63 8.79,4.2 47.09,77.56 61.03,93.72 6.81,0.06 21.59,1.07 26.98,-1.19 2.55,-6.22 2.47,-138.64 0.31,-143.58 -1.99,-2.34 -9.09,-2.02 -12.96,-1.95 -4.37,0.07 -8.52,0.17 -13.55,0.54l0.12 93.72c-9.33,-4.23 -49.96,-82.88 -61.58,-94.3l-26.91 0.66c-1.5,12.72 -1.47,138.09 0.66,145.65z"/>
  <path class="fil0" d="M3413.23 585c12.82,-3.85 27.93,0.82 35.65,7.34 19.63,16.59 22.13,83.03 -16.46,90.81 -50.6,10.21 -58.23,-50.82 -44.87,-78.49 6.35,-13.12 9.68,-14.86 25.68,-19.66zm78.65 65.67c9.2,-46.07 -15.64,-83.9 -53.23,-91.1 -104.73,-20.09 -115.94,134.07 -32.11,148.69 48.86,8.52 77.28,-17.26 85.34,-57.6z"/>
  <path class="fil0" d="M2280.95 584.96c58.12,-17.93 69.22,84.11 22.13,97.81 -57.37,16.7 -72.27,-82.32 -22.13,-97.81zm-60.2 56.14c3.46,43.01 30.47,71.69 77.3,68.21 42.41,-3.16 67.44,-36.13 64.15,-82.62 -6.92,-97.77 -149.8,-89.31 -141.45,14.42z"/>
  <path class="fil0" d="M1639.59 594.85c-0.04,-8.2 -2.38,-8.14 4.64,-9.27 5.07,-0.82 67.13,1.57 71.37,-0.43 4.75,-2.24 3.68,-16.36 2.61,-22.83 -7.22,-2.58 -95.29,-2.05 -107.28,-0.74 -1.72,14.72 -1.86,138.72 0.91,145.96l107.92 -0.51c2.88,-6.06 2.51,-17.36 0.55,-24.16 -24.42,-0.51 -59.58,0.95 -80.38,-0.8 -0.97,-8.03 -0.77,-23.16 -0.6,-31.65 0.17,-8.39 -0.62,-7.76 7.85,-7.94 22.07,-0.48 40.79,1.13 65.26,-0.46 0.75,-24.32 3.35,-24.47 -9.03,-24.3 -13.75,0.19 -55.11,1.7 -63.78,-0.74l-0.04 -22.12z"/>
  <path class="fil0" d="M1049.52 594.85c-0.05,-10.53 -4.34,-9.2 18.99,-9.15l57.02 -0.55c4.75,-2.24 3.67,-16.36 2.61,-22.83 -7.22,-2.58 -95.29,-2.05 -107.27,-0.74 -1.73,14.68 -1.85,138.81 0.91,145.95l107.91 -0.5c2.88,-6.05 2.51,-17.37 0.55,-24.15 -24.49,-0.52 -59.55,0.95 -80.38,-0.81 -0.97,-8.03 -0.77,-23.16 -0.6,-31.65 0.17,-8.39 -0.62,-7.76 7.85,-7.94 22.07,-0.48 40.8,1.13 65.26,-0.46 0.75,-24.31 3.35,-24.47 -9.03,-24.3 -13.75,0.19 -55.11,1.7 -63.78,-0.74l-0.04 -22.12z"/>
  <path class="fil0" d="M1739.41 661.63c-1.51,10.09 8.82,27.78 18.55,36.41 10.03,8.89 27.65,12.02 44.2,11.55 33.81,-0.94 60.52,-19.44 54.11,-55.61 -2.75,-15.47 -14.36,-24.43 -27.1,-30.37 -12.92,-6.02 -29.34,-7.42 -43.1,-12.72 -19.58,-7.53 -18.76,-23.88 3.34,-27.23 27.94,-4.24 26.35,7.27 35.87,20.4l27.07 -2.02c2.46,-15.02 -10.81,-30.93 -19.9,-35.91 -50.17,-27.46 -111.34,14.31 -80.38,56.46 17.13,23.31 70.86,20.69 75.2,38.15 4.23,16.97 -15.49,24.63 -31.54,23.44 -21.24,-1.57 -21.55,-12.58 -29.01,-26.74 -7.35,-0.67 -22.05,0.64 -27.31,4.19z"/>
  <path class="fil0" d="M2528.25 660.15c-0.36,0.44 -4.77,-0.68 -0.19,12.48 3.91,11.18 8.42,19.01 18.23,26.46 12.33,9.38 30.82,11.64 49.68,9.85 44.41,-4.21 57.31,-41.26 42.38,-66.77 -17.81,-30.45 -72.14,-22.61 -79.08,-42.38 -2.64,-7.53 6.37,-14.1 12.03,-15.56 34.68,-8.97 34.8,15.68 40.71,18.77 4.26,2.24 22.52,0.1 26.39,-1.01 0.14,-0.42 0.23,-0.99 0.28,-1.31l0.33 -5.36c-0.01,-0.09 -1.02,-5.16 -1.06,-5.29 -7.68,-26.69 -39.72,-35.17 -66.39,-31.07 -39.71,6.12 -49.74,41.63 -32.98,63.3 21.12,27.29 70.06,17.97 75.01,38.49 4,16.61 -12.84,24.94 -31.64,23.57 -19.67,-1.44 -22.31,-11.96 -28.1,-27.73l-25.6 3.57z"/>
  <path class="fil0" d="M2941.72 562.27c-2.13,9.74 -0.82,88.15 0.88,100.96 4.56,33.97 20.46,45.33 57.16,46.33 34.98,0.96 54.46,-14.13 57.11,-46.4 1.13,-13.79 2.54,-92 -0.16,-101.93l-28.33 0.3c-8.24,60.23 18.46,123.2 -28.57,122.6 -29.42,-0.37 -28.72,-21.99 -28.68,-47.81 0.02,-15.17 2.87,-64.01 -1.02,-73.94 -6.19,-2.58 -21.94,-2.34 -28.38,-0.1z"/>
  <path class="fil0" d="M1921.08 649.18c0.5,-8.59 5.92,-18.66 8.74,-27.12l7.16 -19.93c1.75,-3.12 0.94,-1.42 2.11,-2.87l1.77 -1.65c2.98,5.9 18.01,45.77 17.81,51.41l-37.59 0.15zm-51.4 58.28c6.08,0.57 13.98,0.22 20.29,0.19 18.56,-0.1 9.11,-16.81 22.71,-33.92l56.22 0.04c7.32,9.71 7.27,25.2 15.67,33.77l27.69 -0.05c0.91,-8.26 -55.09,-144.21 -56.43,-145.19 -7.67,-3.14 -22.05,-1.43 -31.54,-0.98l-42.49 109.99c-2.62,7.82 -13.48,28.54 -12.12,36.15z"/>
  <path class="fil0" d="M3702.4 648.22c-0.15,-6.15 14.64,-44.47 18.24,-50.81 5.4,6.29 20.28,48.64 19.09,50.02 -4.74,2.79 -30.34,2.63 -37.33,0.79zm-23.54 59.31c16.59,-26.43 -9.51,-39.8 71.29,-33.77 6.76,9.67 8.09,24.51 15.1,33.92l28.24 -0.32c1.54,-6.86 -22.77,-63.28 -27.13,-73.69 -10.09,-24.04 -20.05,-49.27 -29.22,-72.63l-30.98 0.46 -50.44 127.92c-1.58,4.15 -2.13,5.55 -3.65,9.33 -0.18,0.45 -1.62,4.32 -1.64,4.43l0.08 3.48c6.83,2.72 19.92,1.03 28.33,0.87z"/>
  <path class="fil0" d="M1355.68 610.81c0.06,-28.46 -6.25,-25.04 20.62,-25.11 23.33,-0.02 37.83,10.57 29.82,29.32 -3.56,8.32 -10.44,10.5 -20.51,11.44 -5.07,0.47 -10.61,0.54 -15.72,0.67l-10.83 -0.57c-0.36,-0.07 -1.09,0.1 -1.34,-0.42 -0.25,-0.52 -0.9,-0.27 -1.87,-0.46l-0.19 -14.87zm-1.35 96.23c4.26,-9.74 1.57,-29.97 1.29,-42.08 -0.27,-12.04 -2.56,-13.29 9.31,-13.29 30.16,0.02 63.14,2.17 71.85,-33.17 6.86,-27.85 -7.31,-47.84 -27.38,-55.17 -10.33,-3.77 -68.86,-3.21 -82.35,-1.74 -1.73,14.7 -1.85,138.76 0.91,146.05l26.37 -0.59z"/>
  <path class="fil0" d="M2173.71 654.13c-5.61,7.93 -8.78,34.79 -41.93,29 -18.97,-3.31 -26.3,-22.97 -26.96,-45.19 -0.75,-25.51 3.03,-43.84 21.85,-51.83 9.88,-4.19 22.35,-3.14 30.27,1.64 10.61,6.4 9.32,10.75 15.7,19.95l26.85 -6.23c0.27,-24.18 -36.08,-53.43 -78.41,-40.13 -54.92,17.25 -57.28,91.67 -32,122.91 43.98,54.36 113.57,10.42 111.24,-22.02 -5,-2.67 -20.14,-8.18 -26.6,-8.1z"/>
  <path class="fil0" d="M3183.43 654.32c-5.11,6.41 -6.44,16.47 -13.68,22.75 -13.31,11.56 -53.29,15.28 -55.45,-39.07 -2.12,-53.17 31.31,-61.32 52.34,-50.5 10,5.16 9.48,9.76 14.99,20.47l27.01 -6.73c0.86,-8.1 -5.01,-16.91 -9.36,-22.43 -4.58,-5.82 -8.54,-9.54 -16.59,-13.74 -15.69,-8.16 -34.04,-8.09 -52.09,-3.64 -14.16,3.51 -29.82,17.42 -35.3,26.88 -8.86,15.26 -11.43,29.49 -11.27,49.62 0.61,71.83 71.32,84.06 102.97,61.21 9.35,-6.75 22.35,-24.1 22.93,-37.08 -4.67,-2.63 -20.45,-7.7 -26.5,-7.74z"/>
  <path class="fil0" d="M2700.69 586.16c4.86,15.16 -2.76,114.4 3.06,119.87 0.96,0.9 25.18,6.5 27.79,-3.09l1.86 -114.82c0.76,-6.03 31.85,-0.96 41.45,-2.99l-0.3 -23.44c-9.39,-1.51 -107.88,-1.47 -115.32,0.32 -4.07,39.5 5.2,18.11 41.46,24.15z"/>
  <path class="fil0" d="M3225.9 585l42.2 0.79c6.36,15.62 -3.9,106.27 2.54,121.1l26.51 0.6c6.78,-18.46 -3.13,-107.61 2.48,-120.72 8.77,-2.8 30.96,0.17 36.58,-1.15l3.69 -1.65c3.93,-2.01 2.6,-16.83 1.8,-21.64 -7.87,-2.81 -102.08,-2.02 -115.57,-0.79l-0.23 23.47z"/>
 </g>
</svg>
